<svg viewBox="0 0 24 24" xmlns="http://www.w3.org/2000/svg" xml:space="preserve" style="fill-rule:evenodd;clip-rule:evenodd;stroke-linejoin:round;stroke-miterlimit:2"><path style="fill:none" d="M0 0h24v24H0z"/><path d="M8.701 13a1 1 0 0 0-1-1H4.25a1 1 0 0 0-1 1v7.5h5.451V13ZM4.25 13h3.451v6.5H4.25V13ZM14.834 11a.997.997 0 0 0-1-1h-3.451a.997.997 0 0 0-1 1v9.5h5.451V11Zm-4.451 0h3.451v8.5h-3.451V11ZM20.967 5a1 1 0 0 0-1-1h-3.451a1 1 0 0 0-1 1v15.5h5.451V5Zm-4.451 0h3.451v14.5h-3.451V5Z" style="fill:#afafb6"/><path d="M21.958 20a.997.997 0 0 0-1-1H3.042a.997.997 0 0 0-.707 1.707.996.996 0 0 0 .707.293h17.916a.997.997 0 0 0 1-1Z" style="fill:#afafb6"/><path d="m18.377 9.375 2.509 1.715.421-3.316-2.93 1.601Z" style="fill:#fff"/><path d="M18.137 8.937a.499.499 0 0 0-.042.851l2.509 1.715a.499.499 0 0 0 .778-.35l.421-3.316a.5.5 0 0 0-.736-.502l-2.93 1.602Zm.24.438 2.509 1.715.421-3.316-2.93 1.601Z" style="fill:#fff"/><path d="M3.5 17.76h2.864a.5.5 0 0 0 .42-.229l1.649-2.554 4.041 2.374a.502.502 0 0 0 .559-.035l5.09-3.926a.48.48 0 0 0 .122-.136l2.399-3.93a.5.5 0 1 0-.854-.52l-2.351 3.851-4.75 3.663-4.163-2.446a.498.498 0 0 0-.673.16L6.091 16.76H3.5a.5.5 0 0 0 0 1Z" style="fill:#00d8a4;stroke:#fff;stroke-width:1px"/><path d="m18.393 9.435 2.914-1.661-.42 3.328-2.494-1.667Z" style="fill:#afafb7"/><path d="M3.5 17.26h2.864l1.909-2.957 4.454 2.617 5.091-3.926 2.156-3.225" style="fill:none;stroke:#afafb7;stroke-width:1px;stroke-linecap:round;stroke-miterlimit:1.5"/></svg>