<svg viewBox="0 0 24 24" xmlns="http://www.w3.org/2000/svg" xml:space="preserve" style="fill-rule:evenodd;clip-rule:evenodd;stroke-linejoin:round;stroke-miterlimit:2"><path style="fill:none" d="M0 0h24v24H0z"/><path d="M8.526 13a1 1 0 0 0-1-1H4.075a1 1 0 0 0-1 1v7.5h5.451V13Z" style="fill:#d1e8fa"/><path d="M8.526 13a1 1 0 0 0-1-1H4.075a1 1 0 0 0-1 1v7.5h5.451V13Zm-4.451 0h3.451v6.5H4.075V13Z" style="fill:#0d76ff"/><path d="M20.792 5a1 1 0 0 0-1-1H16.34a1 1 0 0 0-1 1v15.5h5.452V5Z" style="fill:#f0b5fc"/><path d="M20.792 5a1 1 0 0 0-1-1H16.34a1 1 0 0 0-1 1v15.5h5.452V5Zm-1 0v14.5H16.34V5h3.452Z" style="fill:#d01df7"/><path d="M14.659 11a1.002 1.002 0 0 0-1-1h-3.452a1 1 0 0 0-1 1v9.5h5.452V11Z" style="fill:#fff2b7"/><path d="M14.659 11a1.002 1.002 0 0 0-1-1h-3.452a1 1 0 0 0-1 1v9.5h5.452V11Zm-4.452 0h3.452v8.5h-3.452V11Z" style="fill:#ffc20a"/><path d="M2.376 20.707A1.002 1.002 0 0 1 3.083 19H21a.997.997 0 0 1 1 1 .997.997 0 0 1-1 1H3.083a.995.995 0 0 1-.499-.134 1 1 0 0 0 .496-.787.194.194 0 0 1-.053-.023l-.651.651ZM3.083 20Zm0 0Z" style="fill:#61616b"/><path d="M3.5 17.76h2.864a.5.5 0 0 0 .42-.229l1.649-2.554 4.041 2.374a.502.502 0 0 0 .559-.035l5.09-3.926a.48.48 0 0 0 .122-.136l2.399-3.93a.5.5 0 1 0-.854-.52l-2.351 3.851-4.75 3.663-4.163-2.446a.498.498 0 0 0-.673.16L6.091 16.76H3.5a.5.5 0 0 0 0 1Z" style="fill:#00d8a4;stroke:#fff;stroke-width:1px"/><path d="m18.509 9.375 2.509 1.715.422-3.316-2.931 1.601Z" style="fill:#fff"/><path d="M18.27 8.936a.501.501 0 0 0-.043.852l2.509 1.715a.499.499 0 0 0 .778-.35l.422-3.316a.5.5 0 0 0-.736-.502l-2.93 1.601Zm.239.439 2.509 1.715.422-3.316-2.931 1.601Z" style="fill:#fff"/><path d="M18.499 9.374 21.44 7.76l-.474 3.321-2.467-1.707Z" style="fill:#00c478"/><path d="M3.5 17.26h2.864l1.909-2.957 4.454 2.617 5.091-3.926 2.256-3.26" style="fill:none;stroke:#00c478;stroke-width:1px;stroke-linecap:round;stroke-miterlimit:1.5"/></svg>