<svg viewBox="0 0 24 24" xmlns="http://www.w3.org/2000/svg" xml:space="preserve" style="fill-rule:evenodd;clip-rule:evenodd;stroke-linecap:round;stroke-linejoin:round;stroke-miterlimit:1.5"><path style="fill:none" d="M0 0h24v24H0z"/><path d="M22 11.04A1.04 1.04 0 0 0 20.96 10H3.002C2.449 10 2 10.449 2 11.002V22h20V11.04Z" style="fill:#e3e3e8"/><path d="M22 11.04A1.04 1.04 0 0 0 20.96 10H3.002C2.449 10 2 10.449 2 11.002V22h20V11.04Zm-1 0V21H3v-9.998L3.002 11H20.96a.04.04 0 0 1 .04.04Z" style="fill:#61616b"/><path d="m17 10-5-4.908L7 10v12h10V10Z" style="fill:#e3e3e8"/><path d="m17 10-5-4.908L7 10v12h10V10Zm-1 .42V21H8V10.42l4-3.927 4 3.927Z" style="fill:#61616b"/><circle cx="12" cy="11.5" r="3" style="fill:#fff"/><path d="M12 8.5a3.001 3.001 0 0 1 0 6 3.001 3.001 0 0 1 0-6Zm0 1a2 2 0 1 1-.001 4.001A2 2 0 0 1 12 9.5Z" style="fill:#61616b"/><path d="M12 11.5h1M12 11.5V9.275" style="fill:none;stroke:#61616b;stroke-width:1px"/><path d="M14.079 17.084A2.084 2.084 0 0 0 11.995 15h-.002a2.084 2.084 0 0 0-2.084 2.084V22h4.17v-4.916Z" style="fill:#fff"/><path d="M14.079 17.084A2.084 2.084 0 0 0 11.995 15h-.002a2.084 2.084 0 0 0-2.084 2.084V22h4.17v-4.916Zm-1 0V21h-2.17v-3.916c0-.599.485-1.084 1.084-1.084h.002c.599 0 1.084.485 1.084 1.084Z" style="fill:#61616b"/><path style="fill:#0d76ff;stroke:#0d76ff;stroke-width:1px" d="M12 2.5h3.026v2H12z"/><path d="M12 6V2.5" style="fill:none;stroke:#61616b;stroke-width:1px"/><path style="fill:#af8758" d="M4 18h2v1.5H4z"/><path style="fill:#61616b" d="M4 18h2v1.5H4z"/><path style="fill:#af8758" d="M4 15h2v1.5H4z"/><path style="fill:#61616b" d="M4 15h2v1.5H4z"/><path style="fill:#af8758" d="M4 12h2v1.5H4z"/><path style="fill:#61616b" d="M4 12h2v1.5H4z"/><path style="fill:#af8758" d="M18 18h2v1.5h-2z"/><path style="fill:#61616b" d="M18 18h2v1.5h-2z"/><path style="fill:#af8758" d="M18 15h2v1.5h-2z"/><path style="fill:#61616b" d="M18 15h2v1.5h-2z"/><path style="fill:#af8758" d="M18 12h2v1.5h-2z"/><path style="fill:#61616b" d="M18 12h2v1.5h-2z"/></svg>