<svg viewBox="0 0 24 24" xmlns="http://www.w3.org/2000/svg" xml:space="preserve" style="fill-rule:evenodd;clip-rule:evenodd;stroke-linejoin:round;stroke-miterlimit:2"><path style="fill:none" d="M0 0h24v24H0z"/><path d="M9.302 18.899c0 2.08.612 2.59 1.698 2.59h2c1.001 0 1.697-.484 1.697-2.59H9.302Z" style="fill:#e3e3e8;stroke:#61616b;stroke-width:1px"/><path d="M12 2.492c3.7 0 6.703 3.003 6.703 6.703 0 4.313-3.165 4.658-4.006 9.704H9.303c-.836-5.013-4.006-5.391-4.006-9.704 0-3.7 3.003-6.703 6.703-6.703Z" style="fill:#fff2b7;stroke:#ffc20a;stroke-width:1px"/><path d="m10.074 10.713.74 8.186h2.532l.739-8.186" style="fill:none;stroke:#ffc20a;stroke-width:1px;stroke-linecap:round;stroke-miterlimit:1.5"/><path d="M11.411 10.706a.671.671 0 0 1-.668.643.673.673 0 0 1-.669-.643m2.674 0a.671.671 0 0 1-.668.643.673.673 0 0 1-.669-.643m2.675 0a.672.672 0 0 1-.669.643.672.672 0 0 1-.668-.643" style="fill:none;stroke:#ffc20a;stroke-width:1px;stroke-linecap:round;stroke-miterlimit:1.5"/><path d="M11.624 4.137c-1.813.182-3.59 1.604-4.267 3.324" style="fill:none;stroke:#ffc20a;stroke-width:.92px;stroke-linecap:round;stroke-miterlimit:1.5"/></svg>