<svg viewBox="0 0 24 24" xmlns="http://www.w3.org/2000/svg" xml:space="preserve" style="fill-rule:evenodd;clip-rule:evenodd;stroke-linejoin:round;stroke-miterlimit:2"><path style="fill:none" d="M0 0h24v24H0z"/><circle cx="12" cy="12" r="9" style="fill:#d1e8fa"/><path d="M12 3c4.967 0 9 4.033 9 9s-4.033 9-9 9-9-4.033-9-9 4.033-9 9-9Zm0 1c4.415 0 8 3.585 8 8s-3.585 8-8 8-8-3.585-8-8 3.585-8 8-8Z" style="fill:#0d76ff"/><path d="M11.959 7a2.261 2.261 0 0 1 2.25 2.25 2.261 2.261 0 0 1-2.25 2.25 2.261 2.261 0 0 1-2.25-2.25A2.261 2.261 0 0 1 11.959 7m0 1.125a1.13 1.13 0 0 0-1.125 1.125 1.13 1.13 0 0 0 1.125 1.125 1.13 1.13 0 0 0 1.125-1.125 1.13 1.13 0 0 0-1.125-1.125m0 3.938c1.502 0 4.5.748 4.5 2.25V16h-9v-1.687c0-1.502 2.998-2.25 4.5-2.25m0 1.068c-1.671 0-3.431.822-3.431 1.182v.618h6.862v-.618c0-.36-1.76-1.182-3.431-1.182Z" style="fill:#0d76ff;fill-rule:nonzero"/></svg>